<mxfile host="app.diagrams.net" modified="2021-12-21T08:59:28.724Z" agent="5.0 (X11; Linux x86_64) AppleWebKit/537.36 (KHTML, like Gecko) Chrome/93.0.4577.82 Safari/537.36" etag="vqJaH-wLbfSfDENPjeYt" version="16.0.0" type="github">
  <diagram id="C5RBs43oDa-KdzZeNtuy" name="Page-1">
    <mxGraphModel dx="1355" dy="713" grid="1" gridSize="10" guides="1" tooltips="1" connect="1" arrows="1" fold="1" page="1" pageScale="1" pageWidth="827" pageHeight="1169" math="0" shadow="0">
      <root>
        <mxCell id="WIyWlLk6GJQsqaUBKTNV-0" />
        <mxCell id="WIyWlLk6GJQsqaUBKTNV-1" parent="WIyWlLk6GJQsqaUBKTNV-0" />
        <mxCell id="h9dEjPaXv0BFM_o7a7cX-0" value="位姿估计" style="rounded=1;whiteSpace=wrap;html=1;" vertex="1" parent="WIyWlLk6GJQsqaUBKTNV-1">
          <mxGeometry x="220" y="200" width="120" height="60" as="geometry" />
        </mxCell>
        <mxCell id="h9dEjPaXv0BFM_o7a7cX-1" value="松耦合" style="rounded=1;whiteSpace=wrap;html=1;" vertex="1" parent="WIyWlLk6GJQsqaUBKTNV-1">
          <mxGeometry x="150" y="320" width="190" height="60" as="geometry" />
        </mxCell>
        <mxCell id="h9dEjPaXv0BFM_o7a7cX-2" value="" style="endArrow=classic;html=1;rounded=0;entryX=0.168;entryY=0.033;entryDx=0;entryDy=0;entryPerimeter=0;" edge="1" parent="WIyWlLk6GJQsqaUBKTNV-1" target="h9dEjPaXv0BFM_o7a7cX-1">
          <mxGeometry width="50" height="50" relative="1" as="geometry">
            <mxPoint x="182" y="140" as="sourcePoint" />
            <mxPoint x="180" y="310" as="targetPoint" />
          </mxGeometry>
        </mxCell>
        <mxCell id="h9dEjPaXv0BFM_o7a7cX-3" value="" style="endArrow=classic;html=1;rounded=0;exitX=0.5;exitY=1;exitDx=0;exitDy=0;" edge="1" parent="WIyWlLk6GJQsqaUBKTNV-1" source="h9dEjPaXv0BFM_o7a7cX-0">
          <mxGeometry width="50" height="50" relative="1" as="geometry">
            <mxPoint x="230" y="300" as="sourcePoint" />
            <mxPoint x="280" y="320" as="targetPoint" />
          </mxGeometry>
        </mxCell>
        <mxCell id="h9dEjPaXv0BFM_o7a7cX-6" value="IMU" style="text;html=1;strokeColor=none;fillColor=none;align=center;verticalAlign=middle;whiteSpace=wrap;rounded=0;" vertex="1" parent="WIyWlLk6GJQsqaUBKTNV-1">
          <mxGeometry x="130" y="150" width="60" height="30" as="geometry" />
        </mxCell>
        <mxCell id="h9dEjPaXv0BFM_o7a7cX-7" value="" style="endArrow=classic;html=1;rounded=0;entryX=0.5;entryY=0;entryDx=0;entryDy=0;" edge="1" parent="WIyWlLk6GJQsqaUBKTNV-1" target="h9dEjPaXv0BFM_o7a7cX-0">
          <mxGeometry width="50" height="50" relative="1" as="geometry">
            <mxPoint x="280" y="140" as="sourcePoint" />
            <mxPoint x="310" y="120" as="targetPoint" />
          </mxGeometry>
        </mxCell>
        <mxCell id="h9dEjPaXv0BFM_o7a7cX-8" value="image" style="text;html=1;strokeColor=none;fillColor=none;align=center;verticalAlign=middle;whiteSpace=wrap;rounded=0;" vertex="1" parent="WIyWlLk6GJQsqaUBKTNV-1">
          <mxGeometry x="280" y="150" width="60" height="30" as="geometry" />
        </mxCell>
        <mxCell id="h9dEjPaXv0BFM_o7a7cX-9" value="位姿" style="text;html=1;strokeColor=none;fillColor=none;align=center;verticalAlign=middle;whiteSpace=wrap;rounded=0;" vertex="1" parent="WIyWlLk6GJQsqaUBKTNV-1">
          <mxGeometry x="280" y="270" width="60" height="30" as="geometry" />
        </mxCell>
        <mxCell id="h9dEjPaXv0BFM_o7a7cX-10" value="" style="endArrow=classic;html=1;rounded=0;exitX=0.5;exitY=1;exitDx=0;exitDy=0;" edge="1" parent="WIyWlLk6GJQsqaUBKTNV-1" source="h9dEjPaXv0BFM_o7a7cX-1">
          <mxGeometry width="50" height="50" relative="1" as="geometry">
            <mxPoint x="220" y="460" as="sourcePoint" />
            <mxPoint x="245" y="440" as="targetPoint" />
          </mxGeometry>
        </mxCell>
        <mxCell id="h9dEjPaXv0BFM_o7a7cX-11" value="位姿" style="text;html=1;strokeColor=none;fillColor=none;align=center;verticalAlign=middle;whiteSpace=wrap;rounded=0;" vertex="1" parent="WIyWlLk6GJQsqaUBKTNV-1">
          <mxGeometry x="250" y="390" width="60" height="30" as="geometry" />
        </mxCell>
        <mxCell id="h9dEjPaXv0BFM_o7a7cX-12" value="跟踪" style="rounded=1;whiteSpace=wrap;html=1;" vertex="1" parent="WIyWlLk6GJQsqaUBKTNV-1">
          <mxGeometry x="504" y="195" width="120" height="60" as="geometry" />
        </mxCell>
        <mxCell id="h9dEjPaXv0BFM_o7a7cX-13" value="紧耦合" style="rounded=1;whiteSpace=wrap;html=1;" vertex="1" parent="WIyWlLk6GJQsqaUBKTNV-1">
          <mxGeometry x="434" y="315" width="190" height="60" as="geometry" />
        </mxCell>
        <mxCell id="h9dEjPaXv0BFM_o7a7cX-14" value="" style="endArrow=classic;html=1;rounded=0;entryX=0.168;entryY=0.033;entryDx=0;entryDy=0;entryPerimeter=0;" edge="1" parent="WIyWlLk6GJQsqaUBKTNV-1" target="h9dEjPaXv0BFM_o7a7cX-13">
          <mxGeometry width="50" height="50" relative="1" as="geometry">
            <mxPoint x="466" y="135" as="sourcePoint" />
            <mxPoint x="464" y="305" as="targetPoint" />
          </mxGeometry>
        </mxCell>
        <mxCell id="h9dEjPaXv0BFM_o7a7cX-15" value="" style="endArrow=classic;html=1;rounded=0;exitX=0.5;exitY=1;exitDx=0;exitDy=0;" edge="1" parent="WIyWlLk6GJQsqaUBKTNV-1" source="h9dEjPaXv0BFM_o7a7cX-12">
          <mxGeometry width="50" height="50" relative="1" as="geometry">
            <mxPoint x="514" y="295" as="sourcePoint" />
            <mxPoint x="564" y="315" as="targetPoint" />
          </mxGeometry>
        </mxCell>
        <mxCell id="h9dEjPaXv0BFM_o7a7cX-16" value="IMU" style="text;html=1;strokeColor=none;fillColor=none;align=center;verticalAlign=middle;whiteSpace=wrap;rounded=0;" vertex="1" parent="WIyWlLk6GJQsqaUBKTNV-1">
          <mxGeometry x="414" y="145" width="60" height="30" as="geometry" />
        </mxCell>
        <mxCell id="h9dEjPaXv0BFM_o7a7cX-17" value="" style="endArrow=classic;html=1;rounded=0;entryX=0.5;entryY=0;entryDx=0;entryDy=0;" edge="1" parent="WIyWlLk6GJQsqaUBKTNV-1" target="h9dEjPaXv0BFM_o7a7cX-12">
          <mxGeometry width="50" height="50" relative="1" as="geometry">
            <mxPoint x="564" y="135" as="sourcePoint" />
            <mxPoint x="594" y="115" as="targetPoint" />
          </mxGeometry>
        </mxCell>
        <mxCell id="h9dEjPaXv0BFM_o7a7cX-18" value="image" style="text;html=1;strokeColor=none;fillColor=none;align=center;verticalAlign=middle;whiteSpace=wrap;rounded=0;" vertex="1" parent="WIyWlLk6GJQsqaUBKTNV-1">
          <mxGeometry x="564" y="145" width="60" height="30" as="geometry" />
        </mxCell>
        <mxCell id="h9dEjPaXv0BFM_o7a7cX-19" value="特征" style="text;html=1;strokeColor=none;fillColor=none;align=center;verticalAlign=middle;whiteSpace=wrap;rounded=0;" vertex="1" parent="WIyWlLk6GJQsqaUBKTNV-1">
          <mxGeometry x="564" y="265" width="60" height="30" as="geometry" />
        </mxCell>
        <mxCell id="h9dEjPaXv0BFM_o7a7cX-20" value="" style="endArrow=classic;html=1;rounded=0;exitX=0.5;exitY=1;exitDx=0;exitDy=0;" edge="1" parent="WIyWlLk6GJQsqaUBKTNV-1" source="h9dEjPaXv0BFM_o7a7cX-13">
          <mxGeometry width="50" height="50" relative="1" as="geometry">
            <mxPoint x="504" y="455" as="sourcePoint" />
            <mxPoint x="529" y="435" as="targetPoint" />
          </mxGeometry>
        </mxCell>
        <mxCell id="h9dEjPaXv0BFM_o7a7cX-21" value="位姿" style="text;html=1;strokeColor=none;fillColor=none;align=center;verticalAlign=middle;whiteSpace=wrap;rounded=0;" vertex="1" parent="WIyWlLk6GJQsqaUBKTNV-1">
          <mxGeometry x="534" y="385" width="60" height="30" as="geometry" />
        </mxCell>
        <mxCell id="h9dEjPaXv0BFM_o7a7cX-22" value="一般imu信息还会用于前后帧的特征跟踪" style="text;html=1;strokeColor=none;fillColor=none;align=center;verticalAlign=middle;whiteSpace=wrap;rounded=0;" vertex="1" parent="WIyWlLk6GJQsqaUBKTNV-1">
          <mxGeometry x="509" y="90" width="110" height="30" as="geometry" />
        </mxCell>
      </root>
    </mxGraphModel>
  </diagram>
</mxfile>
